<?xml version="1.0" standalone="no"?>
<!DOCTYPE svg PUBLIC "-//W3C//DTD SVG 20010904//EN"
 "http://www.w3.org/TR/2001/REC-SVG-20010904/DTD/svg10.dtd">
<svg fill="none" version="1.0" xmlns="http://www.w3.org/2000/svg"
 width="712.000000pt" height="530.000000pt" viewBox="0 0 712.000000 530.000000"
 preserveAspectRatio="xMidYMid meet">

<g transform="translate(0.000000,530.000000) scale(0.100000,-0.100000)"
fill="#000" stroke="none">
<path d="M6446 5248 c-27 -63 -45 -113 -51 -143 -4 -20 -36 -59 -97 -119 l-90
-89 -74 7 c-67 6 -76 5 -113 -19 -23 -14 -45 -25 -49 -25 -19 0 -95 -63 -113
-95 -35 -59 -53 -56 -128 22 -36 38 -87 79 -112 91 -48 23 -109 29 -109 11 0
-6 25 -39 57 -72 61 -67 87 -117 97 -188 l7 -46 -46 -12 c-25 -6 -60 -20 -77
-31 -44 -26 -94 -26 -108 0 -9 17 -21 20 -89 20 -103 0 -320 -28 -346 -44 -33
-21 -147 -34 -351 -41 -106 -3 -218 -10 -250 -15 -69 -10 -206 -43 -249 -60
-64 -25 -334 -88 -405 -94 -84 -8 -178 -24 -390 -67 -278 -56 -393 -64 -615
-42 -66 7 -194 14 -285 17 -91 2 -201 10 -245 16 -84 12 -308 56 -360 70 -16
5 -59 12 -95 15 -36 4 -83 13 -105 20 -52 17 -251 42 -439 55 l-149 10 -86
-39 c-63 -29 -110 -60 -173 -117 -49 -42 -88 -80 -88 -84 0 -5 -25 -41 -56
-81 -32 -40 -65 -91 -76 -114 -10 -22 -22 -47 -27 -55 -5 -8 -14 -31 -21 -50
-7 -19 -27 -78 -46 -129 -18 -52 -33 -109 -33 -125 0 -17 -7 -87 -16 -156 -9
-69 -20 -190 -25 -270 -5 -80 -14 -181 -20 -225 -6 -44 -15 -130 -19 -191 -6
-77 -17 -134 -35 -184 -15 -42 -30 -112 -36 -164 -9 -99 -22 -165 -35 -186 -5
-8 -8 -32 -6 -52 2 -26 -6 -53 -23 -84 -14 -26 -26 -56 -26 -69 0 -12 -9 -48
-21 -81 -17 -49 -19 -72 -14 -134 8 -92 8 -100 0 -230 -3 -58 -10 -114 -14
-125 -5 -11 -14 -33 -20 -48 -14 -35 -14 -110 -1 -123 6 -6 12 -37 14 -70 6
-96 29 -119 115 -115 48 1 90 23 133 68 39 40 73 173 57 221 -12 37 -9 78 14
167 13 49 14 74 5 137 -9 66 -8 85 6 132 15 48 17 96 15 388 -3 289 -1 337 13
363 12 23 15 47 11 100 -5 65 22 419 33 437 13 21 34 5 39 -29 11 -76 27 -148
35 -158 4 -5 10 -46 13 -90 5 -60 17 -104 47 -179 22 -55 40 -109 40 -120 0
-12 9 -39 19 -61 11 -22 27 -69 36 -105 9 -36 28 -94 41 -130 23 -64 41 -229
36 -339 -3 -51 -72 -234 -107 -283 -57 -77 -70 -134 -51 -211 22 -89 37 -202
36 -277 0 -83 6 -175 20 -270 13 -95 -3 -355 -26 -409 -9 -20 -19 -58 -24 -86
-5 -27 -11 -60 -15 -71 -5 -17 2 -32 29 -62 28 -30 36 -48 37 -78 0 -22 10
-57 22 -78 18 -32 32 -43 74 -57 29 -10 55 -14 58 -10 2 5 51 11 107 14 116 6
138 12 138 36 0 18 -57 160 -89 221 -26 49 -50 419 -32 480 7 25 9 63 5 98 -6
61 15 150 42 173 8 7 14 30 14 55 0 43 26 114 42 114 4 0 8 -4 8 -8 0 -5 16
-35 36 -68 49 -81 149 -308 169 -386 26 -94 29 -117 16 -132 -8 -10 -10 -32
-5 -68 6 -46 14 -60 58 -106 l51 -53 85 -2 c90 -2 160 14 195 44 11 9 35 24
53 33 43 22 48 39 23 75 -12 16 -21 34 -21 39 0 6 -33 46 -74 89 -71 76 -127
167 -155 256 -7 21 -23 57 -36 80 -34 62 -52 133 -54 217 -1 41 -4 89 -7 105
-23 145 -22 298 3 339 8 12 23 -15 23 -40 0 -28 57 -131 77 -138 28 -11 36 10
41 99 2 47 6 85 9 85 2 0 13 -5 24 -11 29 -15 59 -2 59 26 0 13 4 26 9 29 16
10 31 -21 41 -80 11 -68 20 -80 49 -65 19 11 21 20 21 101 0 106 18 142 93
186 57 34 75 58 79 110 l3 39 52 -1 c39 -1 69 -11 120 -38 188 -101 182 -100
363 -109 264 -13 532 -17 549 -8 10 6 25 4 42 -5 37 -19 119 -3 174 33 22 15
56 32 75 38 46 14 130 61 193 107 28 21 62 38 74 38 22 0 159 -17 198 -25 19
-4 20 -12 19 -257 -2 -264 -12 -358 -53 -483 -11 -33 -24 -79 -31 -103 -8 -32
-20 -48 -45 -63 -47 -28 -50 -46 -15 -79 37 -35 37 -46 0 -90 -37 -43 -38 -67
-2 -82 15 -7 37 -20 48 -31 19 -16 44 -19 171 -24 166 -7 182 -1 144 45 -12
15 -26 38 -32 52 -6 14 -18 37 -25 52 -12 22 -13 60 -5 220 9 184 27 288 51
303 11 7 97 133 123 180 21 38 35 118 38 209 1 36 5 70 9 76 9 14 95 3 109
-14 12 -14 33 -233 25 -262 -3 -12 1 -35 9 -51 9 -17 15 -56 15 -100 0 -49 5
-79 17 -96 23 -36 47 -257 42 -392 -3 -76 -11 -131 -26 -180 -22 -70 -21 -114
5 -252 2 -12 34 -48 70 -80 75 -65 70 -64 257 -48 114 9 114 9 91 90 -15 51
-26 72 -49 88 -60 42 -70 60 -84 148 -7 46 -19 111 -27 144 -19 87 -20 260 -1
310 20 53 43 97 56 104 6 4 12 73 15 161 4 142 16 262 33 329 6 29 51 82 177
211 46 47 100 110 120 141 26 39 52 65 86 83 54 30 123 94 220 205 79 90 100
120 100 146 0 11 7 28 15 39 7 10 22 63 32 117 11 64 22 99 30 99 8 0 13 -12
13 -30 0 -16 5 -41 12 -56 12 -25 15 -26 68 -20 102 11 129 18 155 42 23 22
25 29 25 118 0 105 -10 138 -46 155 -62 28 -33 85 68 133 91 43 144 55 281 62
65 4 124 12 145 22 80 34 109 50 172 91 63 41 68 43 124 37 101 -9 150 8 249
87 100 80 137 138 137 213 0 65 -12 88 -76 148 -49 46 -134 149 -134 162 0 6
-37 50 -98 116 l-53 58 -9 90 c-5 49 -14 102 -20 116 -15 39 -12 82 6 119 10
19 17 58 18 97 1 86 -16 114 -86 135 -73 21 -93 19 -132 -15 -26 -24 -40 -29
-60 -24 -54 13 -51 30 14 75 88 62 127 145 137 292 5 71 3 95 -12 127 -10 22
-22 40 -27 40 -4 0 -15 -15 -22 -32z m40 -75 c9 -60 -12 -157 -49 -233 -26
-53 -42 -72 -89 -103 -63 -42 -71 -62 -35 -94 40 -37 64 -38 103 -4 20 18 46
31 62 31 43 0 106 -20 120 -38 20 -26 15 -123 -9 -178 -20 -43 -20 -53 -9 -98
7 -28 18 -93 25 -144 12 -88 15 -96 52 -135 44 -47 99 -117 127 -161 11 -17
54 -67 97 -113 85 -90 94 -109 87 -182 -6 -59 -36 -104 -111 -165 -102 -83
-110 -86 -221 -86 -96 0 -99 -1 -145 -34 -105 -76 -209 -116 -304 -116 -115 0
-205 -19 -293 -60 -92 -44 -124 -77 -124 -127 0 -28 6 -37 34 -54 39 -23 46
-41 46 -129 0 -94 -12 -111 -90 -132 -97 -26 -113 -22 -126 31 -12 53 -36 73
-59 51 -8 -9 -23 -56 -34 -105 -24 -110 -52 -186 -84 -228 -60 -78 -220 -236
-254 -252 -51 -24 -79 -50 -120 -115 -20 -30 -76 -95 -126 -145 -118 -119
-143 -146 -156 -172 -19 -37 -40 -224 -40 -360 -1 -123 -2 -134 -25 -168 -53
-78 -66 -133 -60 -262 3 -65 11 -143 19 -173 7 -30 17 -88 20 -129 6 -65 11
-78 42 -112 19 -21 43 -41 52 -44 11 -3 26 -28 38 -64 l19 -59 -36 -6 c-19 -4
-78 -9 -130 -12 l-95 -7 -49 41 c-60 50 -67 61 -83 132 -17 80 -15 137 7 208
36 115 24 466 -19 556 -19 38 -23 58 -18 99 3 32 0 68 -9 92 -7 22 -14 65 -14
95 0 76 -20 233 -31 246 -5 6 -35 16 -66 23 -76 15 -93 1 -93 -77 0 -76 -19
-179 -42 -227 -20 -43 -71 -121 -112 -170 -40 -50 -55 -132 -62 -346 -5 -144
-4 -198 4 -203 7 -4 12 -16 12 -26 0 -11 14 -35 30 -53 17 -19 30 -38 30 -42
0 -4 -62 -4 -137 0 -125 7 -141 10 -166 31 -16 13 -33 24 -38 24 -16 0 -10 19
21 62 16 22 30 46 30 53 0 6 -14 24 -31 39 l-30 27 39 37 c31 29 44 53 62 112
61 207 75 308 67 477 -4 70 -2 171 3 223 11 117 8 122 -105 139 -139 20 -172
16 -221 -24 -23 -19 -47 -35 -52 -35 -6 0 -33 -16 -62 -35 -29 -19 -59 -35
-68 -35 -8 0 -44 -16 -78 -35 -67 -38 -156 -57 -168 -36 -8 12 -49 15 -59 4
-12 -11 -338 -16 -361 -5 -11 6 -90 13 -174 16 -151 4 -155 5 -230 41 -42 20
-99 50 -125 66 -35 22 -67 32 -113 36 -76 7 -94 -4 -94 -56 0 -41 -17 -61 -82
-100 -21 -12 -50 -41 -66 -64 -25 -38 -28 -49 -24 -107 2 -36 -1 -76 -6 -90
-9 -23 -11 -20 -17 29 -9 61 -42 108 -69 98 -9 -4 -18 -12 -20 -19 -15 -49
-15 -49 -36 -36 -37 24 -54 0 -62 -87 -4 -43 -9 -80 -12 -82 -7 -7 -50 77 -61
121 -20 75 -65 71 -86 -8 -9 -31 -9 -81 0 -201 24 -316 27 -339 60 -407 16
-34 39 -87 50 -116 40 -101 74 -158 142 -230 37 -40 79 -94 94 -120 24 -43 25
-48 9 -57 -9 -5 -28 -19 -43 -31 -45 -35 -112 -54 -193 -54 -72 0 -80 2 -113
31 -57 51 -68 80 -61 168 5 63 2 89 -18 156 -32 105 -72 200 -146 343 -66 128
-80 143 -104 123 -26 -22 -58 -103 -53 -136 3 -20 -1 -37 -13 -50 -32 -37 -41
-89 -46 -260 -7 -220 10 -455 36 -510 11 -22 35 -77 54 -122 l34 -82 -51 -10
c-29 -6 -79 -10 -112 -10 -33 1 -71 1 -85 0 -54 -2 -77 17 -94 78 -9 31 -16
64 -16 73 0 8 -9 23 -21 34 -38 34 -41 50 -24 131 9 43 20 82 25 88 23 27 38
374 20 462 -5 26 -14 132 -19 234 -6 102 -18 216 -26 254 -19 80 -8 148 30
193 29 35 67 117 100 215 25 74 25 84 19 225 -5 119 -11 159 -29 207 -13 33
-35 102 -49 154 -14 52 -33 102 -41 111 -8 9 -15 30 -15 46 0 17 -18 76 -40
132 -26 65 -44 130 -50 180 -5 42 -14 97 -20 122 -6 25 -13 65 -17 90 -6 46
-26 80 -48 80 -7 0 -20 -9 -30 -20 -15 -17 -22 -58 -37 -228 -10 -114 -15
-228 -12 -254 5 -39 2 -55 -16 -83 -16 -25 -20 -44 -16 -63 14 -54 17 -544 5
-612 -7 -36 -12 -123 -13 -195 -1 -98 -6 -143 -20 -184 -16 -46 -17 -61 -7
-106 12 -52 4 -123 -21 -188 -15 -38 -87 -86 -140 -93 -57 -7 -82 11 -84 62
-1 22 -7 59 -14 84 -14 55 -8 136 15 180 14 27 16 65 17 233 0 223 12 306 56
391 14 28 26 70 27 95 2 25 5 53 8 61 3 8 8 26 10 40 3 14 10 43 16 65 6 22
11 66 11 97 0 37 9 81 26 125 18 48 28 101 34 178 5 61 13 135 18 165 6 30 15
127 22 215 21 306 52 534 81 615 15 41 32 91 39 110 44 121 143 270 252 378
86 86 227 156 308 154 99 -3 415 -33 435 -41 28 -12 127 -31 210 -41 39 -5 99
-16 135 -25 214 -51 405 -75 597 -75 81 0 163 -4 180 -9 18 -5 100 -13 183
-17 177 -8 233 -2 580 66 135 26 279 51 322 54 82 7 276 51 392 90 165 55 250
68 486 77 266 9 322 15 375 39 42 19 253 50 341 50 41 0 55 -5 74 -25 31 -33
62 -32 135 5 33 16 67 30 76 30 9 0 24 9 34 20 14 16 17 30 12 70 -8 67 -31
111 -90 176 -33 37 -44 54 -33 54 36 0 96 -42 160 -111 64 -70 67 -71 95 -59
16 6 48 34 70 60 27 32 67 62 114 87 68 36 76 38 149 35 l77 -4 89 91 c88 89
91 93 118 181 29 95 38 99 50 23z"/>
</g>
</svg>
